<?xml version="1.0" encoding="UTF-8"?>
<!DOCTYPE svg PUBLIC "-//W3C//DTD SVG 1.1//EN" "http://www.w3.org/Graphics/SVG/1.1/DTD/svg11.dtd">
<svg xmlns="http://www.w3.org/2000/svg" version="1.1" width="224px" height="224px" style="shape-rendering:geometricPrecision; text-rendering:geometricPrecision; image-rendering:optimizeQuality; fill-rule:evenodd; clip-rule:evenodd" xmlns:xlink="http://www.w3.org/1999/xlink">
<g><path style="opacity:0.133" fill="#6f97d5" d="M 54.5,16.5 C 55.8333,17.1667 55.8333,17.1667 54.5,16.5 Z"/></g>
<g><path style="opacity:1" fill="#7497bf" d="M 38.5,19.5 C 39.964,18.8401 41.6307,18.5068 43.5,18.5C 45.6397,18.5561 47.3064,19.2227 48.5,20.5C 45.272,19.5863 41.9387,19.2529 38.5,19.5 Z"/></g>
<g><path style="opacity:1" fill="#fcfdfd" d="M 38.5,19.5 C 41.9387,19.2529 45.272,19.5863 48.5,20.5C 49.9245,18.9689 50.5912,19.3023 50.5,21.5C 50.427,23.0269 51.0937,24.0269 52.5,24.5C 53.7199,26.2837 53.7199,27.9504 52.5,29.5C 50.7656,32.2003 48.4323,34.2003 45.5,35.5C 44.4138,35.62 43.7472,36.2867 43.5,37.5C 43.5427,38.4164 43.8761,39.0831 44.5,39.5C 45.4614,41.2646 45.7947,43.2646 45.5,45.5C 45.1201,47.698 45.7868,49.3646 47.5,50.5C 47.6036,52.7028 48.2702,54.7028 49.5,56.5C 49.5,57.1667 49.8333,57.5 50.5,57.5C 50.8333,59.5 51.1667,61.5 51.5,63.5C 52.3127,69.0488 54.9794,73.3821 59.5,76.5C 60.4746,78.7952 61.8079,80.7952 63.5,82.5C 64.3833,85.7043 66.0499,88.3709 68.5,90.5C 70.0526,92.9301 72.0526,94.9301 74.5,96.5C 75.713,99.2254 77.5464,101.559 80,103.5C 80.6077,101.846 81.1077,100.179 81.5,98.5C 82.1499,98.1961 82.8165,97.8627 83.5,97.5C 84.48,94.9135 84.8134,92.2469 84.5,89.5C 87.438,85.5284 91.438,83.3617 96.5,83C 97.2524,82.3292 97.5858,81.4959 97.5,80.5C 99.1131,79.3077 100.78,78.3077 102.5,77.5C 102.833,77.5 103.167,77.5 103.5,77.5C 105.924,78.0305 108.257,78.8638 110.5,80C 110.859,82.6305 111.859,84.7971 113.5,86.5C 114.487,91.3054 114.821,96.3054 114.5,101.5C 114.5,103.167 114.5,104.833 114.5,106.5C 113.325,106.281 112.325,106.614 111.5,107.5C 110.831,110.53 110.165,113.53 109.5,116.5C 108.167,117.833 106.833,117.833 105.5,116.5C 104.365,114.912 103.031,114.579 101.5,115.5C 101.994,117.026 102.661,118.359 103.5,119.5C 103.5,119.833 103.5,120.167 103.5,120.5C 103.5,122.5 104.5,123.5 106.5,123.5C 107.167,124.833 108.167,125.833 109.5,126.5C 109.5,127.167 109.833,127.5 110.5,127.5C 111.11,128.391 111.443,129.391 111.5,130.5C 112.11,132.434 113.11,134.101 114.5,135.5C 114.5,138.167 114.5,140.833 114.5,143.5C 112.807,144.475 111.307,145.808 110,147.5C 109.545,150.854 109.045,154.187 108.5,157.5C 108.5,157.833 108.5,158.167 108.5,158.5C 108.205,160.735 108.539,162.735 109.5,164.5C 110.833,167.5 110.833,170.5 109.5,173.5C 107.098,183.267 104.931,193.267 103,203.5C 102.501,207.821 102.334,212.154 102.5,216.5C 105.838,216.065 108.838,216.732 111.5,218.5C 111.5,220.167 111.5,221.833 111.5,223.5C 104.833,223.5 98.1667,223.5 91.5,223.5C 90.9157,215.826 90.249,208.159 89.5,200.5C 89.5,200.167 89.5,199.833 89.5,199.5C 89.8674,195.033 89.3674,190.7 88,186.5C 87.586,186.043 87.086,185.709 86.5,185.5C 84.7484,187.246 83.4151,189.246 82.5,191.5C 80.1799,193.419 77.8466,195.419 75.5,197.5C 75.1667,197.5 74.8333,197.5 74.5,197.5C 73.8826,197.611 73.3826,197.944 73,198.5C 72.502,201.482 72.3354,204.482 72.5,207.5C 71.8333,207.5 71.5,207.833 71.5,208.5C 70.454,211.19 69.454,213.857 68.5,216.5C 70.8333,216.5 73.1667,216.5 75.5,216.5C 76.5137,217.674 77.847,218.34 79.5,218.5C 79.5,219.167 79.8333,219.5 80.5,219.5C 81.2341,220.708 81.5674,222.041 81.5,223.5C 62.8333,223.5 44.1667,223.5 25.5,223.5C 24.7705,218.87 24.4372,214.203 24.5,209.5C 24.6741,207.139 25.0074,204.806 25.5,202.5C 27.0075,200.819 28.0075,198.819 28.5,196.5C 32.3939,192.392 36.0606,188.059 39.5,183.5C 42.5,181.167 45.1667,178.5 47.5,175.5C 49.7271,174.599 50.7271,172.933 50.5,170.5C 51.9063,170.027 52.573,169.027 52.5,167.5C 53.404,166.791 53.7373,165.791 53.5,164.5C 55.1454,163.521 56.4787,162.188 57.5,160.5C 56.675,159.614 55.675,159.281 54.5,159.5C 53.8333,159.5 53.1667,159.5 52.5,159.5C 52.5,159.167 52.5,158.833 52.5,158.5C 51.4154,156.413 49.7488,155.08 47.5,154.5C 47.5,154.167 47.5,153.833 47.5,153.5C 46.3126,151.025 44.3126,150.025 41.5,150.5C 41.2785,147.933 40.6118,145.599 39.5,143.5C 36.7359,140.575 35.7359,137.242 36.5,133.5C 36.5472,132 35.8805,131 34.5,130.5C 33.6747,126.878 33.1747,123.211 33,119.5C 32.6174,118.944 32.1174,118.611 31.5,118.5C 31.5,113.5 31.5,108.5 31.5,103.5C 30.6458,95.2911 29.3125,87.2911 27.5,79.5C 27.4135,75.1434 27.0802,70.81 26.5,66.5C 26.5,58.8333 26.5,51.1667 26.5,43.5C 26.6741,41.139 27.0074,38.8056 27.5,36.5C 28.9238,34.4855 29.5905,32.1522 29.5,29.5C 31.7881,25.5442 34.7881,22.2109 38.5,19.5 Z"/></g>
<g><path style="opacity:0.133" fill="#6e92b8" d="M 38.5,19.5 C 34.7881,22.2109 31.7881,25.5442 29.5,29.5C 30.4239,24.2452 33.4239,20.9118 38.5,19.5 Z"/></g>
<g><path style="opacity:0.267" fill="#5b96dc" d="M 28.5,23.5 C 29.8333,24.1667 29.8333,24.1667 28.5,23.5 Z"/></g>
<g><path style="opacity:1" fill="#91acd3" d="M 50.5,21.5 C 51.9063,21.9731 52.573,22.9731 52.5,24.5C 51.0937,24.0269 50.427,23.0269 50.5,21.5 Z"/></g>
<g><path style="opacity:0.467" fill="#6091dd" d="M 54.5,26.5 C 55.525,26.8966 55.6917,27.5632 55,28.5C 54.5357,27.9056 54.369,27.2389 54.5,26.5 Z"/></g>
<g><path style="opacity:1" fill="#97b1c9" d="M 29.5,29.5 C 29.5905,32.1522 28.9238,34.4855 27.5,36.5C 27.5,36.1667 27.5,35.8333 27.5,35.5C 27.2594,33.1016 27.9261,31.1016 29.5,29.5 Z"/></g>
<g><path style="opacity:0.933" fill="#759abe" d="M 52.5,29.5 C 51.9709,33.0334 49.9709,35.3668 46.5,36.5C 46.5,35.8333 46.1667,35.5 45.5,35.5C 48.4323,34.2003 50.7656,32.2003 52.5,29.5 Z"/></g>
<g><path style="opacity:1" fill="#7d9cc6" d="M 45.5,35.5 C 46.1667,35.5 46.5,35.8333 46.5,36.5C 46.5,36.8333 46.5,37.1667 46.5,37.5C 45.1667,37.5 44.5,38.1667 44.5,39.5C 43.8761,39.0831 43.5427,38.4164 43.5,37.5C 43.7472,36.2867 44.4138,35.62 45.5,35.5 Z"/></g>
<g><path style="opacity:0.133" fill="#5f98db" d="M 46.5,37.5 C 47.8333,38.1667 47.8333,38.1667 46.5,37.5 Z"/></g>
<g><path style="opacity:1" fill="#698cb4" d="M 27.5,35.5 C 27.5,35.8333 27.5,36.1667 27.5,36.5C 27.0074,38.8056 26.6741,41.139 26.5,43.5C 26.1667,43.5 25.8333,43.5 25.5,43.5C 25.2938,40.5049 25.9605,37.8383 27.5,35.5 Z"/></g>
<g><path style="opacity:1" fill="#91acd1" d="M 45.5,45.5 C 46.9313,46.7804 47.5979,48.4471 47.5,50.5C 45.7868,49.3646 45.1201,47.698 45.5,45.5 Z"/></g>
<g><path style="opacity:1" fill="#6f94b8" d="M 47.5,50.5 C 49.9817,52.0852 50.6484,54.0852 49.5,56.5C 48.2702,54.7028 47.6036,52.7028 47.5,50.5 Z"/></g>
<g><path style="opacity:0.533" fill="#5883b8" d="M 52.5,55.5 C 53.8333,56.1667 53.8333,56.1667 52.5,55.5 Z"/></g>
<g><path style="opacity:0.267" fill="#709dd4" d="M 52.5,57.5 C 53.8333,58.1667 53.8333,58.1667 52.5,57.5 Z"/></g>
<g><path style="opacity:1" fill="#9eb9d5" d="M 25.5,43.5 C 25.8333,43.5 26.1667,43.5 26.5,43.5C 26.5,51.1667 26.5,58.8333 26.5,66.5C 25.5184,63.0381 25.185,59.3714 25.5,55.5C 24.801,51.4349 24.801,47.4349 25.5,43.5 Z"/></g>
<g><path style="opacity:0.4" fill="#6d96bb" d="M 50.5,57.5 C 52.0739,59.1016 52.7406,61.1016 52.5,63.5C 52.1667,63.5 51.8333,63.5 51.5,63.5C 51.1667,61.5 50.8333,59.5 50.5,57.5 Z"/></g>
<g><path style="opacity:0.133" fill="#6390dc" d="M 54.5,65.5 C 54.369,64.7611 54.5357,64.0944 55,63.5C 55.6917,64.4368 55.525,65.1034 54.5,65.5 Z"/></g>
<g><path style="opacity:1" fill="#8aa4c6" d="M 53.5,65.5 C 53.8333,65.5 54.1667,65.5 54.5,65.5C 55.8897,67.1694 56.2231,68.8361 55.5,70.5C 54.4625,69.0697 53.7959,67.403 53.5,65.5 Z"/></g>
<g><path style="opacity:1" fill="#d6e4f2" d="M 51.5,63.5 C 51.8333,63.5 52.1667,63.5 52.5,63.5C 53.3382,63.8417 53.6716,64.5084 53.5,65.5C 53.7959,67.403 54.4625,69.0697 55.5,70.5C 56.1667,70.8333 56.8333,71.1667 57.5,71.5C 58.1667,73.1667 58.8333,74.8333 59.5,76.5C 54.9794,73.3821 52.3127,69.0488 51.5,63.5 Z"/></g>
<g><path style="opacity:1" fill="#698db4" d="M 25.5,55.5 C 25.185,59.3714 25.5184,63.0381 26.5,66.5C 27.0802,70.81 27.4135,75.1434 27.5,79.5C 24.8487,71.6243 24.1821,63.6243 25.5,55.5 Z"/></g>
<g><path style="opacity:0.133" fill="#5688bb" d="M 57.5,70.5 C 58.8333,71.1667 58.8333,71.1667 57.5,70.5 Z"/></g>
<g><path style="opacity:0.133" fill="#609cdb" d="M 59.5,71.5 C 60.8333,72.1667 60.8333,72.1667 59.5,71.5 Z"/></g>
<g><path style="opacity:0.4" fill="#5e8ab9" d="M 95.5,73.5 C 96.8333,74.1667 96.8333,74.1667 95.5,73.5 Z"/></g>
<g><path style="opacity:0.267" fill="#689bdc" d="M 95.5,77.5 C 96.8333,78.1667 96.8333,78.1667 95.5,77.5 Z"/></g>
<g><path style="opacity:1" fill="#90abce" d="M 102.5,77.5 C 100.78,78.3077 99.1131,79.3077 97.5,80.5C 98.0483,77.9162 99.715,76.9162 102.5,77.5 Z"/></g>
<g><path style="opacity:0.267" fill="#7a99bf" d="M 103.5,77.5 C 110.274,76.2657 113.608,79.2657 113.5,86.5C 111.859,84.7971 110.859,82.6305 110.5,80C 108.257,78.8638 105.924,78.0305 103.5,77.5 Z"/></g>
<g><path style="opacity:1" fill="#6e93ba" d="M 59.5,76.5 C 62.3126,77.4461 63.646,79.4461 63.5,82.5C 61.8079,80.7952 60.4746,78.7952 59.5,76.5 Z"/></g>
<g><path style="opacity:0.667" fill="#578dcd" d="M 88.5,83.5 C 85.9991,83.4891 85.8324,82.8224 88,81.5C 88.4643,82.0944 88.631,82.7611 88.5,83.5 Z"/></g>
<g><path style="opacity:0.667" fill="#7898be" d="M 97.5,80.5 C 97.5858,81.4959 97.2524,82.3292 96.5,83C 91.438,83.3617 87.438,85.5284 84.5,89.5C 84.6574,86.6824 85.9908,84.6824 88.5,83.5C 91.6727,82.9583 94.6727,81.9583 97.5,80.5 Z"/></g>
<g><path style="opacity:1" fill="#7799bc" d="M 27.5,79.5 C 29.3125,87.2911 30.6458,95.2911 31.5,103.5C 28.9731,95.8343 27.6398,87.8343 27.5,79.5 Z"/></g>
<g><path style="opacity:1" fill="#9bb7d5" d="M 63.5,82.5 C 65.9354,83.2702 67.2687,84.9368 67.5,87.5C 68.1098,88.391 68.4431,89.391 68.5,90.5C 66.0499,88.3709 64.3833,85.7043 63.5,82.5 Z"/></g>
<g><path style="opacity:0.667" fill="#6f94bd" d="M 67.5,87.5 C 69.594,90.4218 72.2607,92.9218 75.5,95C 74.944,95.3826 74.6107,95.8826 74.5,96.5C 72.0526,94.9301 70.0526,92.9301 68.5,90.5C 68.4431,89.391 68.1098,88.391 67.5,87.5 Z"/></g>
<g><path style="opacity:1" fill="#9fb6d7" d="M 84.5,89.5 C 84.8134,92.2469 84.48,94.9135 83.5,97.5C 82.8165,97.8627 82.1499,98.1961 81.5,98.5C 82.6828,95.416 83.6828,92.416 84.5,89.5 Z"/></g>
<g><path style="opacity:1" fill="#7b94b7" d="M 74.5,96.5 C 76.1288,97.6253 77.6288,98.9586 79,100.5C 79.7083,99.6195 80.5416,98.9528 81.5,98.5C 81.1077,100.179 80.6077,101.846 80,103.5C 77.5464,101.559 75.713,99.2254 74.5,96.5 Z"/></g>
<g><path style="opacity:1" fill="#7c9dbe" d="M 114.5,101.5 C 115.601,102.848 116.601,104.348 117.5,106C 115.413,106.792 113.579,107.959 112,109.5C 112.03,112.361 111.197,114.695 109.5,116.5C 110.165,113.53 110.831,110.53 111.5,107.5C 112.325,106.614 113.325,106.281 114.5,106.5C 114.5,104.833 114.5,103.167 114.5,101.5 Z"/></g>
<g><path style="opacity:1" fill="#558ab4" d="M 118.5,110.5 C 119.833,111.167 119.833,111.167 118.5,110.5 Z"/></g>
<g><path style="opacity:1" fill="#7098b2" d="M 105.5,116.5 C 103.952,116.821 103.285,117.821 103.5,119.5C 102.661,118.359 101.994,117.026 101.5,115.5C 103.031,114.579 104.365,114.912 105.5,116.5 Z"/></g>
<g><path style="opacity:1" fill="#90a8c8" d="M 103.5,120.5 C 105.19,120.856 106.19,121.856 106.5,123.5C 104.5,123.5 103.5,122.5 103.5,120.5 Z"/></g>
<g><path style="opacity:0.133" fill="#6fa0da" d="M 109.5,123.5 C 110.833,124.167 110.833,124.167 109.5,123.5 Z"/></g>
<g><path style="opacity:0.267" fill="#6c94bc" d="M 106.5,123.5 C 107.609,123.557 108.609,123.89 109.5,124.5C 110.506,125.396 110.506,126.062 109.5,126.5C 108.167,125.833 107.167,124.833 106.5,123.5 Z"/></g>
<g><path style="opacity:0.267" fill="#618cb1" d="M 110.5,127.5 C 112.912,127.694 113.912,129.027 113.5,131.5C 112.833,131.167 112.167,130.833 111.5,130.5C 111.443,129.391 111.11,128.391 110.5,127.5 Z"/></g>
<g><path style="opacity:1" fill="#5e8eb5" d="M 31.5,133.5 C 32.525,133.897 32.6917,134.563 32,135.5C 31.5357,134.906 31.369,134.239 31.5,133.5 Z"/></g>
<g><path style="opacity:1" fill="#aec9df" d="M 111.5,130.5 C 112.167,130.833 112.833,131.167 113.5,131.5C 114.434,132.568 114.768,133.901 114.5,135.5C 113.11,134.101 112.11,132.434 111.5,130.5 Z"/></g>
<g><path style="opacity:0.4" fill="#6698dd" d="M 116.5,134.5 C 117.833,135.167 117.833,135.167 116.5,134.5 Z"/></g>
<g><path style="opacity:1" fill="#90b2d2" d="M 114.5,135.5 C 115.167,135.5 115.833,135.5 116.5,135.5C 115.278,136.937 115.278,138.437 116.5,140C 116.192,141.459 115.525,142.626 114.5,143.5C 114.5,140.833 114.5,138.167 114.5,135.5 Z"/></g>
<g><path style="opacity:1" fill="#85a1ca" d="M 31.5,118.5 C 32.1174,118.611 32.6174,118.944 33,119.5C 33.1747,123.211 33.6747,126.878 34.5,130.5C 35.8805,131 36.5472,132 36.5,133.5C 35.7359,137.242 36.7359,140.575 39.5,143.5C 38.5041,143.586 37.6708,143.252 37,142.5C 36.0862,140.711 35.2529,138.877 34.5,137C 35.8541,135.001 35.6874,133.168 34,131.5C 33.6667,131.833 33.3333,132.167 33,132.5C 32.3345,127.844 31.8345,123.177 31.5,118.5 Z"/></g>
<g><path style="opacity:0.933" fill="#5591b5" d="M 33.5,142.5 C 34.8333,143.167 34.8333,143.167 33.5,142.5 Z"/></g>
<g><path style="opacity:0.667" fill="#86a3c6" d="M 114.5,143.5 C 112.622,148.283 110.622,152.95 108.5,157.5C 109.045,154.187 109.545,150.854 110,147.5C 111.307,145.808 112.807,144.475 114.5,143.5 Z"/></g>
<g><path style="opacity:1" fill="#8aaacc" d="M 39.5,143.5 C 40.6118,145.599 41.2785,147.933 41.5,150.5C 44.3126,150.025 46.3126,151.025 47.5,153.5C 45.8762,153.64 44.7096,152.973 44,151.5C 43.3333,152.167 42.6667,152.833 42,153.5C 39.9937,150.464 39.1604,147.131 39.5,143.5 Z"/></g>
<g><path style="opacity:0.533" fill="#789bc0" d="M 47.5,154.5 C 49.7488,155.08 51.4154,156.413 52.5,158.5C 50.2512,157.92 48.5846,156.587 47.5,154.5 Z"/></g>
<g><path style="opacity:0.8" fill="#7098e0" d="M 52.5,159.5 C 51.8333,160.167 51.8333,160.167 52.5,159.5 Z"/></g>
<g><path style="opacity:1" fill="#7997c1" d="M 108.5,158.5 C 109.828,160.444 110.161,162.444 109.5,164.5C 108.539,162.735 108.205,160.735 108.5,158.5 Z"/></g>
<g><path style="opacity:0.2" fill="#5891d7" d="M 110.5,158.5 C 111.573,159.251 111.74,160.251 111,161.5C 110.517,160.552 110.351,159.552 110.5,158.5 Z"/></g>
<g><path style="opacity:1" fill="#7397b8" d="M 54.5,159.5 C 55.675,159.281 56.675,159.614 57.5,160.5C 56.4787,162.188 55.1454,163.521 53.5,164.5C 53.5106,162.983 54.1772,161.816 55.5,161C 54.944,160.617 54.6107,160.117 54.5,159.5 Z"/></g>
<g><path style="opacity:1" fill="#7d9bc7" d="M 53.5,164.5 C 53.7373,165.791 53.404,166.791 52.5,167.5C 51.1854,166.105 51.5188,165.105 53.5,164.5 Z"/></g>
<g><path style="opacity:1" fill="#6193ad" d="M 47.5,167.5 C 48.8333,168.167 48.8333,168.167 47.5,167.5 Z"/></g>
<g><path style="opacity:1" fill="#6a8cc4" d="M 52.5,167.5 C 52.573,169.027 51.9063,170.027 50.5,170.5C 49.6971,169.577 49.5304,168.577 50,167.5C 50.7697,168.598 51.603,168.598 52.5,167.5 Z"/></g>
<g><path style="opacity:1" fill="#7f9dc1" d="M 50.5,170.5 C 50.7271,172.933 49.7271,174.599 47.5,175.5C 48.1103,173.566 49.1103,171.899 50.5,170.5 Z"/></g>
<g><path style="opacity:0.667" fill="#7093b9" d="M 47.5,175.5 C 45.1667,178.5 42.5,181.167 39.5,183.5C 41.1946,179.805 43.8613,177.139 47.5,175.5 Z"/></g>
<g><path style="opacity:0.933" fill="#5d97e1" d="M 39.5,178.5 C 40.8333,179.167 40.8333,179.167 39.5,178.5 Z"/></g>
<g><path style="opacity:0.133" fill="#4f8bcb" d="M 35.5,185.5 C 34.475,185.103 34.3083,184.437 35,183.5C 35.4643,184.094 35.631,184.761 35.5,185.5 Z"/></g>
<g><path style="opacity:0.933" fill="#6493e1" d="M 31.5,186.5 C 32.8333,187.167 32.8333,187.167 31.5,186.5 Z"/></g>
<g><path style="opacity:1" fill="#7291ba" d="M 39.5,183.5 C 36.0606,188.059 32.3939,192.392 28.5,196.5C 28.6775,195.305 29.0109,194.138 29.5,193C 32.0692,190.933 34.0692,188.433 35.5,185.5C 36.6049,184.4 37.9382,183.733 39.5,183.5 Z"/></g>
<g><path style="opacity:0.133" fill="#7a9ac0" d="M 89.5,199.5 C 88.1682,195.736 87.3349,191.736 87,187.5C 85.6927,189.192 84.1927,190.525 82.5,191.5C 83.4151,189.246 84.7484,187.246 86.5,185.5C 87.086,185.709 87.586,186.043 88,186.5C 89.3674,190.7 89.8674,195.033 89.5,199.5 Z"/></g>
<g><path style="opacity:0.8" fill="#7396bb" d="M 109.5,173.5 C 108.942,181.801 107.608,189.968 105.5,198C 106.304,200.301 105.804,202.468 104,204.5C 103.501,208.152 103.335,211.818 103.5,215.5C 105.857,215.337 108.19,215.503 110.5,216C 111.252,216.671 111.586,217.504 111.5,218.5C 108.838,216.732 105.838,216.065 102.5,216.5C 102.334,212.154 102.501,207.821 103,203.5C 104.931,193.267 107.098,183.267 109.5,173.5 Z"/></g>
<g><path style="opacity:0.4" fill="#7a99c5" d="M 82.5,191.5 C 81.1889,193.336 80.0222,195.336 79,197.5C 78.0138,196.829 76.8471,196.829 75.5,197.5C 77.8466,195.419 80.1799,193.419 82.5,191.5 Z"/></g>
<g><path style="opacity:0.667" fill="#5281b7" d="M 24.5,194.5 C 25.8333,195.167 25.8333,195.167 24.5,194.5 Z"/></g>
<g><path style="opacity:1" fill="#6e8eb2" d="M 28.5,196.5 C 28.0075,198.819 27.0075,200.819 25.5,202.5C 25.461,199.911 26.461,197.911 28.5,196.5 Z"/></g>
<g><path style="opacity:0.667" fill="#6a90b7" d="M 78.5,198.5 C 79.8333,199.167 79.8333,199.167 78.5,198.5 Z"/></g>
<g><path style="opacity:0.267" fill="#5d91dd" d="M 23.5,198.5 C 24.525,198.897 24.6917,199.563 24,200.5C 23.5357,199.906 23.369,199.239 23.5,198.5 Z"/></g>
<g><path style="opacity:0.267" fill="#698eb6" d="M 74.5,197.5 C 73.9899,200.983 73.3232,204.316 72.5,207.5C 72.3354,204.482 72.502,201.482 73,198.5C 73.3826,197.944 73.8826,197.611 74.5,197.5 Z"/></g>
<g><path style="opacity:1" fill="#698cb3" d="M 25.5,202.5 C 25.0074,204.806 24.6741,207.139 24.5,209.5C 24.1667,209.5 23.8333,209.5 23.5,209.5C 23.1706,206.772 23.8372,204.438 25.5,202.5 Z"/></g>
<g><path style="opacity:0.267" fill="#7094d2" d="M 107.5,206.5 C 108.833,207.167 108.833,207.167 107.5,206.5 Z"/></g>
<g><path style="opacity:0.4" fill="#799bbf" d="M 71.5,208.5 C 72.5367,210.493 72.2034,212.493 70.5,214.5C 72.2914,215.17 73.9581,215.837 75.5,216.5C 73.1667,216.5 70.8333,216.5 68.5,216.5C 69.454,213.857 70.454,211.19 71.5,208.5 Z"/></g>
<g><path style="opacity:1" fill="#a8c3d8" d="M 23.5,209.5 C 23.8333,209.5 24.1667,209.5 24.5,209.5C 24.4372,214.203 24.7705,218.87 25.5,223.5C 25.1667,223.5 24.8333,223.5 24.5,223.5C 23.6864,218.881 23.3531,214.214 23.5,209.5 Z"/></g>
<g><path style="opacity:1" fill="#7093b6" d="M 75.5,216.5 C 77.698,216.12 79.3646,216.787 80.5,218.5C 80.1667,218.5 79.8333,218.5 79.5,218.5C 77.847,218.34 76.5137,217.674 75.5,216.5 Z"/></g>
<g><path style="opacity:0.133" fill="#7498c0" d="M 89.5,200.5 C 90.249,208.159 90.9157,215.826 91.5,223.5C 90.8333,223.5 90.1667,223.5 89.5,223.5C 89.2542,215.781 89.2542,208.114 89.5,200.5 Z"/></g>
<g><path style="opacity:0.267" fill="#6495db" d="M 81.5,218.5 C 81.369,217.761 81.5357,217.094 82,216.5C 82.6917,217.437 82.525,218.103 81.5,218.5 Z"/></g>
<g><path style="opacity:0.133" fill="#5d88bb" d="M 80.5,218.5 C 80.8333,218.5 81.1667,218.5 81.5,218.5C 81.3147,219.17 80.9813,219.17 80.5,218.5 Z"/></g>
</svg>
